solid CeramicStrip5010_Default_sldprt
   facet normal 0.000000e+000 -1.000000e+000 0.000000e+000
      outer loop
         vertex 2.597404e-002 8.611317e-001 3.750000e+000
         vertex -9.740260e-001 8.611317e-001 3.750000e+000
         vertex 2.597404e-002 8.611317e-001 -3.750000e+000
      endloop
   endfacet
   facet normal 0.000000e+000 -1.000000e+000 0.000000e+000
      outer loop
         vertex 2.597404e-002 8.611317e-001 -3.750000e+000
         vertex -9.740260e-001 8.611317e-001 3.750000e+000
         vertex -9.740260e-001 8.611317e-001 -3.750000e+000
      endloop
   endfacet
   facet normal 0.000000e+000 0.000000e+000 1.000000e+000
      outer loop
         vertex -9.740260e-001 1.011132e+000 3.750000e+000
         vertex -9.740260e-001 8.611317e-001 3.750000e+000
         vertex 2.597404e-002 1.011132e+000 3.750000e+000
      endloop
   endfacet
   facet normal 0.000000e+000 0.000000e+000 1.000000e+000
      outer loop
         vertex 2.597404e-002 1.011132e+000 3.750000e+000
         vertex -9.740260e-001 8.611317e-001 3.750000e+000
         vertex 2.597404e-002 8.611317e-001 3.750000e+000
      endloop
   endfacet
   facet normal 1.000000e+000 0.000000e+000 0.000000e+000
      outer loop
         vertex 2.597404e-002 1.011132e+000 3.750000e+000
         vertex 2.597404e-002 8.611317e-001 3.750000e+000
         vertex 2.597404e-002 1.011132e+000 -3.750000e+000
      endloop
   endfacet
   facet normal 1.000000e+000 0.000000e+000 0.000000e+000
      outer loop
         vertex 2.597404e-002 1.011132e+000 -3.750000e+000
         vertex 2.597404e-002 8.611317e-001 3.750000e+000
         vertex 2.597404e-002 8.611317e-001 -3.750000e+000
      endloop
   endfacet
   facet normal 0.000000e+000 0.000000e+000 -1.000000e+000
      outer loop
         vertex -9.740260e-001 1.011132e+000 -3.750000e+000
         vertex 2.597404e-002 1.011132e+000 -3.750000e+000
         vertex -9.740260e-001 8.611317e-001 -3.750000e+000
      endloop
   endfacet
   facet normal 0.000000e+000 0.000000e+000 -1.000000e+000
      outer loop
         vertex -9.740260e-001 8.611317e-001 -3.750000e+000
         vertex 2.597404e-002 1.011132e+000 -3.750000e+000
         vertex 2.597404e-002 8.611317e-001 -3.750000e+000
      endloop
   endfacet
   facet normal -1.000000e+000 0.000000e+000 0.000000e+000
      outer loop
         vertex -9.740260e-001 8.611317e-001 3.750000e+000
         vertex -9.740260e-001 1.011132e+000 3.750000e+000
         vertex -9.740260e-001 8.611317e-001 -3.750000e+000
      endloop
   endfacet
   facet normal -1.000000e+000 0.000000e+000 0.000000e+000
      outer loop
         vertex -9.740260e-001 8.611317e-001 -3.750000e+000
         vertex -9.740260e-001 1.011132e+000 3.750000e+000
         vertex -9.740260e-001 1.011132e+000 -3.750000e+000
      endloop
   endfacet
   facet normal 0.000000e+000 1.000000e+000 0.000000e+000
      outer loop
         vertex -9.740260e-001 1.011132e+000 3.750000e+000
         vertex 2.597404e-002 1.011132e+000 3.750000e+000
         vertex -9.740260e-001 1.011132e+000 -3.750000e+000
      endloop
   endfacet
   facet normal 0.000000e+000 1.000000e+000 0.000000e+000
      outer loop
         vertex -9.740260e-001 1.011132e+000 -3.750000e+000
         vertex 2.597404e-002 1.011132e+000 3.750000e+000
         vertex 2.597404e-002 1.011132e+000 -3.750000e+000
      endloop
   endfacet
endsolid