solid GratingStrip5010_Default_sldprt
   facet normal 0.000000e+000 1.000000e+000 0.000000e+000
      outer loop
         vertex -1.165048e+000 1.247777e+000 6.000000e+000
         vertex -5.300485e-001 1.247777e+000 6.000000e+000
         vertex -1.165048e+000 1.247777e+000 0.000000e+000
      endloop
   endfacet
   facet normal 0.000000e+000 1.000000e+000 0.000000e+000
      outer loop
         vertex -1.165048e+000 1.247777e+000 0.000000e+000
         vertex -5.300485e-001 1.247777e+000 6.000000e+000
         vertex -5.300485e-001 1.247777e+000 0.000000e+000
      endloop
   endfacet
   facet normal 0.000000e+000 0.000000e+000 1.000000e+000
      outer loop
         vertex -5.300485e-001 1.231267e+000 6.000000e+000
         vertex -5.300485e-001 1.247777e+000 6.000000e+000
         vertex -1.165048e+000 1.231267e+000 6.000000e+000
      endloop
   endfacet
   facet normal 0.000000e+000 0.000000e+000 1.000000e+000
      outer loop
         vertex -1.165048e+000 1.231267e+000 6.000000e+000
         vertex -5.300485e-001 1.247777e+000 6.000000e+000
         vertex -1.165048e+000 1.247777e+000 6.000000e+000
      endloop
   endfacet
   facet normal -1.000000e+000 0.000000e+000 0.000000e+000
      outer loop
         vertex -1.165048e+000 1.231267e+000 6.000000e+000
         vertex -1.165048e+000 1.247777e+000 6.000000e+000
         vertex -1.165048e+000 1.231267e+000 0.000000e+000
      endloop
   endfacet
   facet normal -1.000000e+000 0.000000e+000 0.000000e+000
      outer loop
         vertex -1.165048e+000 1.231267e+000 0.000000e+000
         vertex -1.165048e+000 1.247777e+000 6.000000e+000
         vertex -1.165048e+000 1.247777e+000 0.000000e+000
      endloop
   endfacet
   facet normal 0.000000e+000 0.000000e+000 -1.000000e+000
      outer loop
         vertex -1.165048e+000 1.231267e+000 0.000000e+000
         vertex -1.165048e+000 1.247777e+000 0.000000e+000
         vertex -5.300485e-001 1.231267e+000 0.000000e+000
      endloop
   endfacet
   facet normal 0.000000e+000 0.000000e+000 -1.000000e+000
      outer loop
         vertex -5.300485e-001 1.231267e+000 0.000000e+000
         vertex -1.165048e+000 1.247777e+000 0.000000e+000
         vertex -5.300485e-001 1.247777e+000 0.000000e+000
      endloop
   endfacet
   facet normal 1.000000e+000 0.000000e+000 0.000000e+000
      outer loop
         vertex -5.300485e-001 1.247777e+000 6.000000e+000
         vertex -5.300485e-001 1.231267e+000 6.000000e+000
         vertex -5.300485e-001 1.247777e+000 0.000000e+000
      endloop
   endfacet
   facet normal 1.000000e+000 0.000000e+000 0.000000e+000
      outer loop
         vertex -5.300485e-001 1.247777e+000 0.000000e+000
         vertex -5.300485e-001 1.231267e+000 6.000000e+000
         vertex -5.300485e-001 1.231267e+000 0.000000e+000
      endloop
   endfacet
   facet normal 0.000000e+000 -1.000000e+000 0.000000e+000
      outer loop
         vertex -5.300485e-001 1.231267e+000 6.000000e+000
         vertex -1.165048e+000 1.231267e+000 6.000000e+000
         vertex -5.300485e-001 1.231267e+000 0.000000e+000
      endloop
   endfacet
   facet normal 0.000000e+000 -1.000000e+000 0.000000e+000
      outer loop
         vertex -5.300485e-001 1.231267e+000 0.000000e+000
         vertex -1.165048e+000 1.231267e+000 6.000000e+000
         vertex -1.165048e+000 1.231267e+000 0.000000e+000
      endloop
   endfacet
endsolid